:SAMPLES-PER-SECOND 30
:FULLY-SPECIFIED
:DEGREES
600
root  6.67611 28.9344 9.58842 -24.105 -0.328854 94.4318
Spine  -7.41575 0.790345 3.63853
Spine1  -7.39323 27.4986 0.943785
Neck  3.97569e-016 0 -2.38542e-015
Head  -23.0583 -4.86111 -10.9492
R_Clavicle  0.419207 -21.3345 1.84767
R_UpperArm  31.8013 6.09603 50.837
R_Forearm  44.3358 3.89967 -3.27362
R_Hand  -0.825986 -0.438955 -13.0479
L_Clavicle  -0.698525 21.337 -1.78694
L_UpperArm  -7.37818 -5.9447 25.9894
L_Forearm  -18.05 3.81164 4.40223
L_Hand  -0.41149 8.83302 -3.04041
L_Thigh  -14.5176 -3.44813 3.06943
L_Calf  -8.18117 6.79584 -60.6709
L_Foot  1.51298 9.6141 -2.95638
L_Toe0  0.505156 0.0341932 -6.1361
R_Thigh  13.146 4.99878 17.0294
R_Calf  -6.06841 0.495038 1.85086
R_Foot  -3.00308 -3.90647 12.0029
R_Toe0  -1.78853 -0.27253 -17.3235
601
root  5.67925 29.572 9.84136 -30.0134 0.0322495 94.2044
Spine  -7.68193 0.550697 2.58171
Spine1  -7.3308 25.808 1.5221
Neck  3.97569e-016 0 -2.38542e-015
Head  -19.7657 -5.13397 -9.58532
R_Clavicle  0.423216 -23.3488 2.07179
R_UpperArm  25.9159 0.547543 52.9234
R_Forearm  29.1387 17.9385 -15.6291
R_Hand  -0.625839 0.815961 -11.3152
L_Clavicle  -0.666885 21.7815 -0.804945
L_UpperArm  -4.60185 0.354343 26.4413
L_Forearm  -11.7451 -7.57899 -8.8516
L_Hand  -0.286497 8.51513 -2.11413
L_Thigh  -9.38719 -1.94748 5.06536
L_Calf  -10.141 7.19307 -67.3529
L_Foot  1.79322 9.8975 -2.18944
L_Toe0  0.505156 0.0336672 -6.1361
R_Thigh  9.68873 5.875 13.6955
R_Calf  -10.0314 1.63758 5.42595
R_Foot  -3.26887 -4.87968 11.2752
R_Toe0  -1.79048 -0.273218 -17.343
602
root  4.50985 30.6542 10.1619 -35.9025 0.848906 93.5889
Spine  -8.42758 0.340425 1.10029
Spine1  -8.16172 22.9235 0.779469
Neck  3.97569e-016 0 -2.38542e-015
Head  -17.0338 -4.64807 -6.54479
R_Clavicle  0.426127 -23.3929 1.84342
R_UpperArm  17.093 -2.6222 51.8729
R_Forearm  5.6014 27.9588 -26.1898
R_Hand  -0.193163 2.27347 -7.5484
L_Clavicle  -0.647257 21.7199 -0.476177
L_UpperArm  -0.866234 4.61384 23.6677
L_Forearm  -1.86963 -16.0438 -19.408
L_Hand  -0.125715 7.66077 -0.876404
L_Thigh  -5.4376 -1.6533 6.7587
L_Calf  -11.5296 7.17098 -67.0458
L_Foot  2.06469 10.5295 -1.73888
L_Toe0  0.505156 0.0329071 -6.13611
R_Thigh  3.39814 6.32648 9.36233
R_Calf  -11.378 3.91682 12.6081
R_Foot  -2.45454 -4.39703 7.41236
R_Toe0  -1.78154 -0.270198 -17.2535
603
root  3.20861 31.9202 10.4377 -42.3733 2.2283 92.678
Spine  -9.01834 -0.173164 -1.75184
Spine1  -8.67807 19.2149 0.678146
Neck  3.97569e-016 0 -2.38542e-015
Head  -13.9332 -3.84327 -2.69592
R_Clavicle  0.423262 -22.2675 1.21898
R_UpperArm  8.1283 -2.5182 47.6613
R_Forearm  -14.6956 33.7255 -33.7017
R_Hand  0.244389 2.64526 -2.8763
L_Clavicle  -0.640709 20.981 -0.882639
L_UpperArm  1.83193 5.82762 17.4347
L_Forearm  7.22392 -20.8815 -26.1484
L_Hand  -0.0540619 6.67269 -0.301252
L_Thigh  -3.84461 -2.43874 9.00922
L_Calf  -11.3883 6.76749 -60.453
L_Foot  2.07554 10.6621 -1.80549
L_Toe0  0.505156 0.031962 -6.13612
R_Thigh  -2.6534 5.89427 4.81431
R_Calf  -7.64112 6.55771 21.2411
R_Foot  -0.985968 -2.90461 1.01215
R_Toe0  -1.62394 -0.225487 -15.6894
604
root  1.91999 32.9784 10.5765 -49.3851 3.41725 91.8638
Spine  -8.975 -0.860305 -5.45918
Spine1  -8.46566 15.9518 1.06316
Neck  3.97569e-016 0 -2.38542e-015
Head  -9.89324 -3.34502 1.71248
R_Clavicle  0.386865 -20.1949 0.233999
R_UpperArm  2.10181 -0.273418 41.6664
R_Forearm  -23.5086 36.4174 -37.8137
R_Hand  0.621214 3.31843 0.111801
L_Clavicle  -0.591735 19.17 -1.55743
L_UpperArm  2.38186 4.91744 9.07747
L_Forearm  11.4524 -22.7445 -28.9622
L_Hand  -0.0178786 5.88786 -0.00108904
L_Thigh  -3.76258 -2.80511 11.4118
L_Calf  -9.2193 5.92261 -49.6872
L_Foot  1.9426 10.1858 -1.89273
L_Toe0  0.505156 0.0308813 -6.13613
R_Thigh  -2.58248 4.98192 1.29518
R_Calf  -1.46594 8.21206 26.9585
R_Foot  0.0286084 -2.78376 -5.87696
R_Toe0  -0.979873 -0.1431 -11.034
605
root  0.77585 33.6292 10.5977 -56.8983 3.40443 91.2178
Spine  -8.3083 -0.924606 -7.77085
Spine1  -7.99677 13.1309 0.0972695
Neck  3.97569e-016 0 -2.38542e-015
Head  -5.35818 -2.84531 5.91876
R_Clavicle  0.283132 -16.9661 -0.725802
R_UpperArm  0.207563 2.33938 34.1914
R_Forearm  -22.328 36.5627 -38.0503
R_Hand  1.08257 5.39792 0.765512
L_Clavicle  -0.47708 16.5142 -1.9926
L_UpperArm  1.05568 2.3757 1.0761
L_Forearm  11.5631 -22.6122 -28.7573
L_Hand  0.0828781 5.36331 1.00712
L_Thigh  -4.30182 -1.54588 13.0606
L_Calf  -5.33793 4.58849 -36.3553
L_Foot  1.85698 9.77339 -1.86627
L_Toe0  0.505156 0.0297144 -6.13614
R_Thigh  4.16563 4.45551 -2.6396
R_Calf  0.0902487 8.8117 29.0356
R_Foot  0.388565 -2.94502 -8.88758
R_Toe0  -2.05706 0.18031 -7.11268
606
root  -0.187986 33.924 10.6253 -64.7049 2.40739 90.5674
Spine  -7.51335 -0.537572 -8.12716
Spine1  -7.65077 10.3294 -2.13287
Neck  3.97569e-016 0 -2.38542e-015
Head  -0.798109 -1.70582 8.64629
R_Clavicle  0.141385 -12.8515 -1.12725
R_UpperArm  1.05365 4.92051 24.3604
R_Forearm  -17.0022 33.5691 -33.4769
R_Hand  1.40017 7.37295 0.322608
L_Clavicle  -0.345221 13.7223 -1.98294
L_UpperArm  -1.23073 -1.96852 -5.06775
L_Forearm  10.5713 -20.9688 -26.2767
L_Hand  0.20993 5.31099 2.39073
L_Thigh  -5.11077 0.794135 13.4736
L_Calf  -0.200799 2.69066 -20.5506
L_Foot  1.52001 8.9005 -2.37581
L_Toe0  0.505156 0.0285105 -6.13615
R_Thigh  8.46422 4.77487 -7.38102
R_Calf  -5.6113 8.15466 26.5905
R_Foot  1.79653 3.92612 -8.51544
R_Toe0  -10.0748 1.70681 -6.55895
607
root  -1.03034 33.9119 10.7909 -72.1494 1.79953 89.9186
Spine  -7.00199 -0.942791 -8.56521
Spine1  -7.40581 8.47598 -3.66376
Neck  3.97569e-016 0 -2.38542e-015
Head  3.83809 -0.123054 9.69907
R_Clavicle  0.0258542 -8.40238 -1.02911
R_UpperArm  2.39157 7.58968 12.3326
R_Forearm  -12.1554 26.8846 -24.9349
R_Hand  1.42438 7.93211 -0.27813
L_Clavicle  -0.227486 11.016 -1.81506
L_UpperArm  -3.84435 -7.338 -9.08583
L_Forearm  8.9101 -17.9422 -21.9695
L_Hand  0.251286 5.93468 2.67424
L_Thigh  -6.00445 2.90877 13.2369
L_Calf  4.1016 0.29371 -2.55355
L_Foot  0.697774 6.74319 -3.70849
L_Toe0  0.505156 0.0273191 -6.13616
R_Thigh  6.79599 5.52609 -12.4054
R_Calf  -13.6887 7.41118 23.8841
R_Foot  3.24571 10.6466 -8.16686
R_Toe0  -16.8444 3.51347 -4.65312
608
root  -1.87733 33.5217 11.069 -78.8649 2.14839 89.3192
Spine  -6.72187 -2.51334 -9.86242
Spine1  -7.23766 8.5256 -4.492
Neck  3.97569e-016 0 -2.38542e-015
Head  8.58687 1.32728 10.1504
R_Clavicle  -0.0764945 -3.38616 -0.840354
R_UpperArm  3.84957 9.70445 -0.295619
R_Forearm  -9.35283 17.2295 -14.9573
R_Hand  1.23803 7.74843 -1.44834
L_Clavicle  -0.0837084 7.98429 -1.96791
L_UpperArm  -6.84706 -12.3289 -11.0008
L_Forearm  4.28514 -13.6169 -16.2577
L_Hand  0.185127 7.02478 1.88091
L_Thigh  -7.34117 4.63424 13.3162
L_Calf  4.96671 -2.07509 15.0019
L_Foot  -0.192739 4.06293 -5.07608
L_Toe0  0.505156 0.0261893 -6.13617
R_Thigh  2.99861 5.81521 -16.7836
R_Calf  -18.8922 7.34796 23.6108
R_Foot  2.57689 8.24065 -5.92843
R_Toe0  -17.5155 4.11643 -3.40222
609
root  -2.78774 32.7609 11.3807 -85.4755 2.03072 89.037
Spine  -6.2548 -3.50271 -9.38516
Spine1  -7.08236 9.2576 -6.74748
Neck  3.97569e-016 0 -2.38542e-015
Head  13.0513 2.64108 10.3918
R_Clavicle  -0.0870362 1.78493 -0.256262
R_UpperArm  5.45633 11.6399 -12.5023
R_Forearm  -7.51795 5.68438 -4.77036
R_Hand  0.952429 7.73691 -3.62488
L_Clavicle  0.0866296 4.75499 -2.19143
L_UpperArm  -9.58899 -16.6331 -11.6136
L_Forearm  -3.37442 -7.92664 -9.26665
L_Hand  0.176693 8.27664 1.68958
L_Thigh  -9.4001 7.08265 13.7014
L_Calf  3.20344 -3.72301 27.9594
L_Foot  -0.707039 2.52202 -6.00565
L_Toe0  0.505156 0.0251706 -6.13618
R_Thigh  -0.95652 5.664 -21.1809
R_Calf  -16.3841 8.09781 26.1802
R_Foot  -1.04881 -2.47244 1.93729
R_Toe0  -10.8628 2.1259 -5.04171
